HIERARCHY
ROOT Hips
{
	OFFSET 0.0000 0.0000 0.0000
	CHANNELS 6 Xposition Yposition Zposition Zrotation Xrotation Yrotation
	JOINT Ab
	{
		OFFSET -0.0000 8.0846 -0.0000
		CHANNELS 3 Zrotation Xrotation Yrotation
		JOINT Chest
		{
			OFFSET -0.0000 23.4989 -0.0000
			CHANNELS 3 Zrotation Xrotation Yrotation
			JOINT Neck
			{
				OFFSET -0.0000 23.4989 0.0000
				CHANNELS 3 Zrotation Xrotation Yrotation
				JOINT Head
				{
					OFFSET -0.0000 10.7556 0.0000
					CHANNELS 3 Zrotation Xrotation Yrotation
					End Site
					{
						OFFSET -0.0000 16.6222 0.0000
					}
				}
			}
			JOINT LeftCollar
			{
				OFFSET -0.0000 23.4989 0.0000
				CHANNELS 3 Zrotation Xrotation Yrotation
				JOINT LeftShoulder
				{
					OFFSET 19.5556 -0.0000 0.0000
					CHANNELS 3 Zrotation Xrotation Yrotation
					JOINT LeftElbow
					{
						OFFSET 27.1528 0.0000 0.0000
						CHANNELS 3 Zrotation Xrotation Yrotation
						JOINT LeftWrist
						{
							OFFSET 22.0582 0.0000 0.0000
							CHANNELS 3 Zrotation Xrotation Yrotation
							End Site
							{
								OFFSET 0.0000 -14.6667 0.0000
							}
						}
					}
				}
			}
			JOINT RightCollar
			{
				OFFSET -0.0000 23.4989 0.0000
				CHANNELS 3 Zrotation Xrotation Yrotation
				JOINT RightShoulder
				{
					OFFSET -19.5556 0.0000 0.0000
					CHANNELS 3 Zrotation Xrotation Yrotation
					JOINT RightElbow
					{
						OFFSET -27.1528 0.0000 0.0000
						CHANNELS 3 Zrotation Xrotation Yrotation
						JOINT RightWrist
						{
							OFFSET -22.0582 0.0000 0.0000
							CHANNELS 3 Zrotation Xrotation Yrotation
							End Site
							{
								OFFSET -0.0000 -14.6667 0.0000
							}
						}
					}
				}
			}
		}
	}
	JOINT LeftHip
	{
		OFFSET 11.7333 0.0000 0.0000
		CHANNELS 3 Zrotation Xrotation Yrotation
		JOINT LeftKnee
		{
			OFFSET -0.0000 -44.6617 0.0000
			CHANNELS 3 Zrotation Xrotation Yrotation
			JOINT LeftAnkle
			{
				OFFSET -0.0000 -38.4819 0.0000
				CHANNELS 3 Zrotation Xrotation Yrotation
				End Site
				{
					OFFSET -0.0000 -4.8889 16.6222
				}
			}
		}
	}
	JOINT RightHip
	{
		OFFSET -11.7333 0.0000 0.0000
		CHANNELS 3 Zrotation Xrotation Yrotation
		JOINT RightKnee
		{
			OFFSET -0.0000 -44.6617 0.0000
			CHANNELS 3 Zrotation Xrotation Yrotation
			JOINT RightAnkle
			{
				OFFSET -0.0000 -38.4819 0.0000
				CHANNELS 3 Zrotation Xrotation Yrotation
				End Site
				{
					OFFSET -0.0000 -4.8889 16.6222
				}
			}
		}
	}
}
MOTION
Frames: 22
Frame Time: 0.010000
-48.5975 88.4570 -62.7224 -0.2177 2.6393 -199.5266 6.1172 2.4849 -4.6826 -13.0085 -2.7161 -4.8609 -9.4542 -0.0868 -3.2503 15.5907 -4.2546 -2.6600 -14.7141 -2.5553 19.1118 -52.4366 36.1082 -2.3522 10.7980 -1.9063 -19.9907 87.1228 -0.8163 -20.2961 31.8095 -2.9723 -10.6551 39.8924 53.1036 5.8141 -20.1816 -6.1286 31.9289 -86.5468 -9.3764 16.4993 -2.7005 0.1488 2.5293 -3.4994 19.2063 3.1009 8.5840 -17.2507 23.2464 -7.1823 -7.3580 0.5280 1.2048 8.5918 3.2919 5.1122 1.0736 -17.1608 
-48.4383 88.4515 -62.6158 -0.1863 2.8863 -199.3602 6.0826 2.6202 -4.4911 -12.9363 -2.1540 -4.5939 -9.4723 -0.8240 -3.2813 15.6083 -3.8627 -2.6841 -14.6903 -2.4444 18.4245 -52.8858 33.0581 -1.8943 10.1861 -1.7627 -19.8772 87.6248 -0.8627 -22.6198 32.0812 -2.9097 -10.0372 39.9304 50.2163 4.9269 -18.5108 -5.3983 32.8051 -86.5022 -9.1046 18.6227 -2.6065 0.4042 2.2986 -3.5600 19.0891 2.8957 8.4730 -17.1351 23.4401 -7.1425 -7.0568 0.0640 1.1512 8.4680 3.6977 5.0702 1.1183 -17.1506 
-48.2391 88.4580 -62.4882 -0.2332 2.9659 -199.0085 5.7874 2.9948 -4.4967 -12.4424 -2.7880 -4.6493 -9.3607 -0.0599 -3.0805 15.2132 -4.0887 -2.5250 -14.9453 -2.3963 17.8053 -53.2735 31.9884 -0.9624 9.8238 -1.7055 -19.4514 88.5172 -0.6097 -23.7286 31.8812 -2.7141 -9.5751 41.3041 49.7412 3.2582 -18.5225 -5.5447 32.3547 -86.1531 -9.0805 19.2521 -2.5451 0.4296 2.2458 -3.3937 19.0037 2.5905 8.3875 -16.9585 23.3797 -7.0143 -6.8403 -0.0668 1.0201 8.2414 3.6058 5.0062 1.2404 -17.2035 
-48.1298 88.4851 -62.4057 -0.5175 2.9094 -198.7657 5.6412 2.4362 -4.4780 -12.8117 -1.7905 -4.5570 -8.7110 -0.6043 -2.9339 15.1128 -3.9513 -2.3578 -14.7775 -2.3419 18.0164 -53.0708 30.9637 -1.5376 9.4256 -1.5906 -19.4924 89.7689 -0.5840 -23.3732 31.6893 -2.8921 -10.3119 40.1328 51.7064 5.3790 -19.2534 -5.4808 31.2221 -86.0564 -9.0171 17.9652 -2.7725 0.3408 2.1972 -3.1790 18.7733 2.5434 8.1644 -16.8729 23.1400 -7.2147 -6.8975 0.1110 1.1274 8.1347 3.4139 4.9024 1.2472 -17.3704 
-47.9393 88.4949 -62.2863 -0.4501 2.7835 -198.3056 5.9219 2.1985 -4.6509 -13.0087 -1.7496 -4.7365 -8.6647 -0.2340 -2.8094 15.1544 -3.8753 -2.2687 -14.6515 -2.3428 18.2332 -52.9893 32.4500 -1.6489 10.4093 -1.8325 -19.3282 87.6894 -0.2348 -21.2353 32.0836 -2.8216 -9.6077 40.9828 50.1096 3.7239 -18.6603 -5.2954 31.2934 -85.7384 -9.1332 18.6916 -2.5098 0.2257 2.3486 -2.9810 18.6984 1.7161 7.9754 -16.7242 23.1888 -6.9607 -6.7887 0.2186 1.0895 7.8911 3.1588 4.8714 1.3225 -17.6285 
-47.7375 88.5589 -62.3249 -0.4717 3.0406 -197.8349 5.1274 3.1910 -4.4996 -11.6727 -3.4825 -4.7083 -8.9094 0.8383 -2.7532 14.7273 -3.6109 -2.3445 -15.2503 -2.4859 17.9348 -53.4264 32.2729 -0.1909 9.9529 -1.7229 -19.6617 88.1875 -0.5529 -22.9183 31.9153 -2.8309 -9.8269 41.4942 48.7127 1.9091 -17.7054 -4.8076 31.3165 -86.3937 -9.2080 19.6675 -2.5798 0.6865 2.3159 -2.6266 18.2452 1.5981 7.6190 -16.5793 22.7054 -6.9933 -6.1184 0.2232 1.1440 7.3883 2.9560 4.7259 1.4014 -17.8092 
-47.5583 88.5787 -62.2054 -0.5201 2.9648 -197.1842 5.2053 2.9310 -4.7213 -11.8970 -3.0525 -4.9092 -8.7432 0.7212 -2.8780 14.7584 -3.4444 -2.4878 -15.1971 -2.3893 17.7955 -53.2556 33.6993 -0.5564 10.8019 -1.9469 -20.1245 87.1191 -0.2414 -21.2384 32.1099 -2.8379 -9.6331 42.3091 47.1019 0.9008 -17.3232 -4.6691 31.2924 -86.6266 -8.9881 20.0581 -2.4436 0.6350 1.8315 -2.5548 17.9607 1.4367 7.3519 -16.3667 22.5252 -6.9355 -5.9308 -0.1019 1.1604 7.1014 2.8072 4.6221 1.4674 -18.0187 
-47.5159 88.5849 -62.0227 -0.7664 2.3749 -197.0632 5.3822 2.1852 -4.6882 -12.1535 -2.7491 -4.8769 -8.5327 0.5166 -2.7251 14.7860 -3.4951 -2.3060 -15.0594 -2.4450 18.4809 -53.0972 34.8838 -1.3027 11.4992 -2.1457 -20.4386 85.5619 -0.7736 -18.8237 31.9635 -2.7850 -9.4861 42.7506 47.7846 0.7868 -17.9631 -4.9209 30.6787 -86.5235 -9.1470 19.1269 -2.4722 0.0206 1.8368 -2.4348 17.6892 1.1303 7.4150 -16.1012 22.6082 -6.9641 -6.6862 -0.2422 1.1858 7.2110 2.8310 4.5797 1.4625 -18.0524 
-47.3738 88.6184 -62.0629 -0.7550 2.6337 -196.9060 5.1318 2.6248 -4.5050 -11.6905 -3.3039 -4.7235 -8.5201 1.0817 -2.7711 14.4090 -3.7051 -2.3854 -15.4070 -2.4624 18.0423 -53.2699 33.2614 -0.5321 11.0538 -2.1046 -21.5782 85.3768 -1.0849 -21.9734 31.6254 -2.9308 -10.7178 41.9619 50.1831 1.6197 -18.7924 -5.1599 29.8768 -86.7959 -8.5800 16.9847 -2.4837 0.6319 1.6564 -2.3751 16.9882 1.3367 7.2204 -15.8474 22.3526 -6.9406 -6.2154 -0.1885 1.1485 6.9388 2.7252 4.5682 1.5812 -18.1208 
-47.2276 88.6417 -62.0397 -0.6990 2.6169 -196.5156 5.3079 2.3388 -4.5396 -11.8507 -2.6559 -4.7070 -8.4247 0.8095 -2.8277 14.6204 -3.8415 -2.3961 -15.1749 -2.4696 18.4158 -53.1427 35.9553 -1.5730 11.7915 -2.3809 -22.1209 85.8374 -0.5493 -19.7105 31.8293 -2.9822 -10.4008 42.3647 48.1785 0.8299 -17.9633 -4.7196 30.1121 -86.8840 -8.9911 17.9444 -2.3515 0.7451 1.7262 -2.1611 16.7783 0.6862 7.1187 -15.7459 22.4355 -6.7889 -6.0022 -0.4581 1.1002 6.7376 2.4748 4.5345 1.6337 -18.0123 
-47.1723 88.6535 -61.9252 -0.8525 2.3963 -196.3899 5.3811 2.0812 -4.5037 -11.9604 -2.7540 -4.6937 -8.7097 1.5576 -2.6656 15.0941 -4.7390 -2.1544 -15.2171 -2.5253 18.6689 -53.0248 36.6542 -1.9783 11.9720 -2.4167 -22.4124 86.6007 -1.3665 -19.5325 31.3375 -2.9493 -10.9130 42.8400 51.3896 1.3468 -19.4962 -5.3723 28.7342 -86.9016 -9.0238 15.9455 -2.4134 0.5613 1.6288 -2.0931 16.5101 0.6689 7.1322 -15.6501 22.4228 -6.8558 -6.3252 -0.5817 1.1367 6.8074 2.6249 4.4841 1.6567 -18.1672 
-47.1112 88.6562 -61.7174 -1.1201 2.0130 -196.1933 5.2375 1.5298 -4.4974 -11.8022 -1.5996 -4.5924 -8.0080 -1.2347 -2.9790 14.1601 -2.9984 -2.5261 -14.7571 -2.4382 19.3670 -52.8942 37.5560 -3.9623 12.4905 -2.6379 -22.8390 86.6571 -1.8600 -19.0322 31.1701 -2.8420 -9.8016 43.5228 46.6520 0.2019 -17.7579 -4.6193 30.4245 -86.3909 -8.9995 18.7748 -2.5203 0.0779 1.4580 -1.9951 16.2693 0.9086 7.0437 -15.4356 22.0934 -6.9443 -6.9505 -0.7077 1.1352 7.0266 2.5396 4.3495 1.5813 -18.1966 
-46.9689 88.6949 -61.7259 -1.0727 2.1687 -195.9760 5.3064 1.9831 -4.4840 -11.9843 -2.1667 -4.6199 -7.2896 -1.0014 -3.2162 13.5319 -2.8272 -2.8182 -14.7048 -2.5342 19.7076 -52.3958 39.9640 -4.3866 13.0991 -2.7711 -23.5552 86.2906 -1.2276 -16.2357 31.6624 -2.8488 -9.9772 43.3402 45.8873 -0.4805 -17.2611 -4.6753 30.8099 -86.2292 -9.0600 19.5169 -2.4245 0.4544 1.3389 -1.9593 15.8396 0.8681 6.9060 -15.2633 21.9530 -6.8194 -6.6319 -0.7580 1.0459 6.8805 2.3322 4.3485 1.6305 -18.1124 
-46.9290 88.7193 -61.5930 -1.2787 2.0116 -195.7170 5.0226 2.1791 -4.4296 -12.0452 -2.5449 -4.6028 -6.2606 -0.9167 -3.1022 13.0255 -3.0967 -2.7011 -14.7108 -2.6167 20.4094 -51.5547 43.2021 -5.7689 14.6019 -3.1846 -23.2847 86.1522 -2.1216 -13.8355 31.7148 -3.0163 -10.9279 43.1199 47.5625 0.2117 -17.8690 -5.0152 30.4052 -86.5255 -8.7049 18.8596 -2.5953 0.2014 1.2371 -1.7539 15.7258 0.6024 6.7329 -15.0893 21.9846 -6.9371 -6.9548 -1.1012 1.0069 7.1282 2.4480 4.2734 1.4796 -18.1465 
-46.8406 88.7408 -61.5887 -1.2504 2.1428 -195.7031 5.4339 1.7846 -4.6149 -12.4206 -1.6201 -4.7093 -6.9016 -1.0958 -3.0081 13.8136 -3.4732 -2.5181 -14.6079 -2.6364 20.2862 -51.7742 42.4196 -6.1176 14.5843 -3.1350 -23.9847 86.5905 -2.6658 -14.3048 31.7278 -3.1587 -11.1740 42.3879 48.9013 1.4117 -18.4030 -5.0101 29.6088 -86.2139 -8.7609 17.8693 -2.5421 0.4678 1.8295 -1.5864 15.4923 -0.0319 6.7631 -14.9856 21.9384 -6.8639 -6.8207 -0.9029 0.9983 7.1149 2.2765 4.1662 1.5320 -18.1887 
-46.8183 88.7449 -61.4291 -1.4266 1.8402 -195.5311 5.4350 1.5853 -4.6868 -12.2518 -1.4808 -4.7694 -7.1452 -2.0989 -2.9867 13.8070 -2.7039 -2.5305 -14.5417 -2.6886 21.0143 -51.2404 44.2832 -7.4892 15.4296 -3.4143 -24.4849 85.9803 -2.6211 -12.3260 31.1839 -3.0974 -11.1608 42.7435 50.2113 1.7396 -19.4314 -5.2580 29.1383 -85.7312 -9.1353 16.7467 -2.6042 0.0677 1.7392 -1.5185 15.3559 -0.0096 6.6351 -14.8371 21.7973 -6.9305 -7.3283 -1.2164 0.9791 7.3677 2.2619 4.0920 1.4491 -18.1023 
-46.7170 88.7669 -61.4461 -1.4595 2.0247 -195.5380 5.7144 1.3287 -4.8464 -12.8338 -0.7678 -4.8670 -7.1505 -1.9556 -2.8575 14.2672 -3.1381 -2.3409 -14.3317 -2.6160 20.8601 -51.3642 43.1978 -7.8832 15.2635 -3.3944 -25.1553 85.9257 -2.8514 -13.5024 31.5255 -3.0661 -10.7480 42.6539 50.2832 1.8600 -19.3782 -5.1598 29.0518 -86.2348 -9.3102 16.5563 -2.6369 0.4297 1.4892 -1.5575 14.9943 0.1646 6.5770 -14.7080 21.8678 -6.9584 -7.1507 -0.9661 1.0219 7.3888 2.0953 4.0885 1.4562 -18.1433 
-46.6897 88.7811 -61.3576 -1.6429 1.8898 -195.4231 5.1565 2.0046 -4.6420 -12.1112 -2.2658 -4.7894 -6.6262 -1.1813 -2.8154 13.4942 -3.1600 -2.3725 -14.6729 -2.7531 20.9474 -51.0878 45.0064 -7.9441 15.2482 -3.4464 -25.3882 87.0218 -2.9648 -13.1165 31.5984 -3.0886 -10.9151 42.7496 49.3881 0.8922 -18.5761 -4.8178 29.5900 -87.0655 -8.7875 17.3717 -2.7884 0.2405 1.3601 -1.4763 14.8797 0.2994 6.4700 -14.5823 21.7393 -7.1049 -7.3776 -1.2666 1.0397 7.4695 2.3930 4.0853 1.4012 -18.2675 
-46.6241 88.7826 -61.2687 -1.6078 1.9123 -195.2747 5.2917 2.1838 -4.8108 -12.2459 -2.3938 -4.9682 -6.5396 -0.7093 -2.8068 13.5656 -3.6005 -2.3366 -14.7988 -2.7221 20.8263 -50.4140 45.6231 -8.6003 15.4783 -3.5631 -25.8805 86.3739 -3.1025 -13.1489 32.0857 -3.1249 -10.8328 42.1283 48.1015 0.7847 -17.9124 -4.7929 30.4379 -86.3734 -8.3880 18.2018 -2.7037 0.2498 1.2689 -1.4719 14.7935 0.4415 6.4022 -14.5413 21.5745 -7.0840 -7.3291 -1.3192 1.1552 7.4403 2.5104 3.9838 1.4559 -18.5037 
-46.5496 88.8097 -61.2349 -1.7035 1.8227 -195.1849 5.1069 2.1240 -4.7877 -11.9311 -2.4579 -4.9490 -6.3298 -0.9132 -2.8075 12.9928 -3.1107 -2.4035 -14.7835 -2.7637 21.1647 -49.8844 47.3298 -9.7076 16.3823 -3.8762 -25.8489 86.0822 -3.4451 -12.5393 31.6840 -3.1169 -10.8905 42.7132 48.6943 0.5835 -18.8776 -5.1830 30.0992 -85.4914 -9.5129 17.1592 -2.7547 0.1798 1.2197 -1.3639 14.6772 0.3364 6.3012 -14.4275 21.5583 -7.0990 -7.3974 -1.3979 1.1291 7.4139 2.5388 3.9101 1.3587 -18.5113 
-46.5101 88.8284 -61.1554 -1.7462 1.6722 -195.2706 5.1479 2.0788 -4.7789 -11.8106 -2.5028 -4.9462 -6.9721 -0.2760 -2.7811 13.8767 -3.7469 -2.3050 -14.8015 -2.8005 21.2976 -49.1444 49.0703 -10.7869 17.1253 -4.0254 -25.8918 85.7686 -3.5875 -11.6214 31.5714 -3.1499 -11.3411 42.0713 49.1438 1.3674 -18.7603 -5.2039 30.3245 -86.2411 -8.6550 17.4530 -2.7024 -0.0161 1.3231 -1.4057 14.7180 0.0753 6.3602 -14.4410 21.8625 -7.0825 -7.6348 -1.1793 1.2176 7.4553 2.4289 3.8425 1.3691 -18.5544 
-46.4143 88.8307 -61.1393 -1.6321 1.8116 -195.1921 5.5262 2.0246 -5.0485 -12.2882 -1.9933 -5.1694 -7.0403 -0.8654 -2.6767 14.1361 -3.2904 -2.2155 -14.6016 -2.8103 21.5394 -48.5977 48.7551 -11.6982 17.2878 -4.0626 -26.4067 85.3307 -4.0274 -12.5809 31.6327 -3.2311 -11.4368 41.8144 50.5115 2.2110 -19.5264 -5.3884 29.9185 -86.2359 -8.6713 16.5742 -2.5472 0.1660 1.4811 -1.3610 14.6953 -0.2398 6.2791 -14.4092 21.8896 -6.9260 -7.3753 -1.0737 1.1829 7.3079 2.3023 3.8110 1.4457 -18.5768 
